<svg width="108px" height="113px" viewBox="0 0 108 113" version="1.1" xmlns="http://www.w3.org/2000/svg" xmlns:xlink="http://www.w3.org/1999/xlink">
    <!-- Generator: Sketch 53.2 (72643) - https://sketchapp.com -->
    <title>Illustration</title>
    <desc>Created with Sketch.</desc>
    <g id="Teaser-for-Cal-Sync-page" stroke="none" stroke-width="1" fill="none" fill-rule="evenodd">
        <g id="Before-Cal-Sync-1" transform="translate(-949.000000, -226.000000)">
            <g id="Group-6" transform="translate(489.000000, 203.000000)">
                <g id="Illustration" transform="translate(434.000000, 0.000000)">
                    <rect id="Rectangle" x="0" y="0" width="160" height="160"></rect>
                    <circle id="Oval-3-Copy-66" fill="#26292C" cx="49" cy="66" r="2"></circle>
                    <circle id="Oval-3-Copy-67" fill="#26292C" cx="49" cy="83" r="2"></circle>
                    <circle id="Oval-3-Copy-68" fill="#08A742" cx="49" cy="100" r="5"></circle>
                    <circle id="Oval-3-Copy-69" fill="#26292C" cx="72" cy="66" r="2"></circle>
                    <circle id="Oval-3-Copy-70" fill="#26292C" cx="72" cy="100" r="2"></circle>
                    <circle id="Oval-3-Copy-71" fill="#26292C" cx="94" cy="100" r="2"></circle>
                    <circle id="Oval-3-Copy-72" fill="#26292C" cx="72" cy="83" r="2"></circle>
                    <circle id="Oval-3-Copy-73" fill="#26292C" cx="94" cy="66" r="2"></circle>
                    <circle id="Oval-3-Copy-74" fill="#26292C" cx="94" cy="83" r="2"></circle>
                    <path d="M88.0240672,116 L33,116 C29.6862915,116 27,113.313708 27,110 L27,52 L115,52 L115,89.9829199" id="Line-3-Copy-14" stroke="#26292C" stroke-width="2" stroke-linecap="round" stroke-linejoin="round" fill-rule="nonzero"></path>
                    <path d="M116,32 L116,45 C116,48.3137085 113.313708,51 110,51 L100.543455,51 L32,51 C28.6862915,51 26,48.3137085 26,45 L26,32" id="Line-3-Copy-15" fill="#08A742" fill-rule="nonzero" transform="translate(71.000000, 41.500000) scale(1, -1) translate(-71.000000, -41.500000) "></path>
                    <g id="Group-5" transform="translate(95.000000, 97.000000)">
                        <circle id="Oval-Copy-2" fill="#317AE2" fill-rule="nonzero" cx="19.5" cy="19.5" r="19.5"></circle>
                        <path d="M27.5439056,15 L23.0878113,19.3333333 L26.429882,19.3333333 C26.429882,22.9191667 23.4331586,25.8333333 19.7457405,25.8333333 C18.6205767,25.8333333 17.551114,25.5625 16.6264744,25.075 L15,26.6566667 C16.370249,27.5016667 17.9967235,28 19.7457405,28 C24.6697248,28 28.6579292,24.1216667 28.6579292,19.3333333 L32,19.3333333 L27.5439056,15 L27.5439056,15 Z M13.570118,19.6666667 C13.570118,16.0808333 16.5668414,13.1666667 20.2542595,13.1666667 C21.3794233,13.1666667 22.448886,13.4375 23.3735256,13.925 L25,12.3433333 C23.629751,11.4983333 22.0032765,11 20.2542595,11 C15.3302752,11 11.3420708,14.8783333 11.3420708,19.6666667 L8,19.6666667 L12.4560944,24 L16.9121887,19.6666667 L13.570118,19.6666667 L13.570118,19.6666667 Z" id="icon-copy-3" fill="#FFFFFF"></path>
                    </g>
                    <path d="M98.5,24 L98.5,24 C99.8807119,24 101,25.1192881 101,26.5 L101,36.5 C101,37.8807119 99.8807119,39 98.5,39 L98.5,39 C97.1192881,39 96,37.8807119 96,36.5 L96,26.5 C96,25.1192881 97.1192881,24 98.5,24 Z" id="Rectangle-7-Copy-17" stroke="#26292C" stroke-width="2" fill="#FFFFFF" stroke-linecap="round" stroke-linejoin="round"></path>
                    <path d="M43.5,24 L43.5,24 C44.8807119,24 46,25.1192881 46,26.5 L46,36.5 C46,37.8807119 44.8807119,39 43.5,39 L43.5,39 C42.1192881,39 41,37.8807119 41,36.5 L41,26.5 C41,25.1192881 42.1192881,24 43.5,24 Z" id="Rectangle-7-Copy-18" stroke="#26292C" stroke-width="2" fill="#FFFFFF" stroke-linecap="round" stroke-linejoin="round"></path>
                </g>
            </g>
        </g>
    </g>
</svg>
