              <svg width="150px" height="150px" viewBox="0 0 150 150" version="1.1" xmlns:xlink="http://www.w3.org/1999/xlink"><defs><ellipse id="a-illustration" cx="23.1304348" cy="23.3333333" rx="23.1304348" ry="23.3333333"></ellipse></defs><g stroke="none" stroke-width="1" fill="none" fill-rule="evenodd"><path d="M14.716 75L0 77.848V97.19l14.716 3.084V75zm.929 5.358v4.943l1.727 1.09a.438.438 0 0 0 .19 0l7.436-5.014c0-.594-.552-1.019-.865-1.019h-8.488zm-8.12 2.858c.97 0 1.755.396 2.354 1.191.6.796.9 1.846.9 3.147.001 1.338-.31 2.416-.931 3.234-.622.818-1.434 1.229-2.434 1.229-.975 0-1.768-.397-2.382-1.19-.613-.793-.923-1.827-.923-3.1 0-1.346.314-2.433.938-3.264.623-.83 1.449-1.247 2.477-1.247zM25 83.374s-7.554 5.02-7.287 4.858c0 0-.269.163-.49 0l-1.578-1.083v6.717h8.008c.712 0 1.347-.416 1.347-1.405v-9.087zM7.48 84.87c-.537 0-.964.252-1.28.756-.316.504-.476 1.171-.476 2.002 0 .843.16 1.51.476 2 .316.49.73.733 1.243.733.529 0 .948-.238 1.258-.715.309-.477.465-1.14.465-1.985 0-.882-.15-1.567-.45-2.058-.302-.49-.713-.733-1.236-.733z" fill="#0072C6" fill-rule="nonzero"></path><path d="M143.218 80.17c-.312-3.708-3.557-6.46-7.248-6.146a6.701 6.701 0 0 0-4.936 2.86 4.274 4.274 0 0 0-5.718 2.005 4.316 4.316 0 0 0-.41 1.508c-3.577 1.012-5.66 4.745-4.652 8.337a6.734 6.734 0 0 0 6.473 4.927h15.905c3.717-.001 6.729-3.028 6.728-6.76 0-3.504-2.667-6.426-6.142-6.732z" fill="#2196F3" fill-rule="nonzero"></path><g transform="translate(63.000000, 117.000000)"><path d="M24.5 12.785c0 3.805-1.364 7.01-3.728 9.187h-4.039v-3.137a5.752 5.752 0 0 0 2.495-3.773H12.5v-4.834h11.772c.149.818.228 1.67.228 2.557z" fill="#318AF5"></path><path d="M12.5 25a12.497 12.497 0 0 1-11.17-6.886v-3.239h4.176c.983 2.954 3.738 5.153 6.994 5.153 1.682 0 3.114-.443 4.233-1.193l4.04 3.137C18.703 23.881 15.874 25 12.5 25z" fill="#3DA751"></path><path d="M5.506 14.875l-4.177 3.239A12.507 12.507 0 0 1 0 12.5c0-2.017.483-3.926 1.33-5.614h4.176v3.239a7.515 7.515 0 0 0-.392 2.375c0 .824.142 1.625.392 2.375z" fill="#FDB900"></path><path d="M12.5 4.972c-3.256 0-6.011 2.199-6.994 5.153L1.329 6.886A12.497 12.497 0 0 1 12.5 0c3.37 0 6.199 1.239 8.364 3.256L17.278 6.84c-1.295-1.237-2.943-1.868-4.778-1.868z" fill="#EA3E36"></path></g><g transform="translate(52.000000, 12.000000)"><mask id="b-illustration" fill="#fff"><use xlink:href="#a-illustration"></use></mask><use fill="#EEE" fill-rule="nonzero" xlink:href="#a-illustration"></use><path d="M22.652 30c11.406 0 20.652 9.246 20.652 20.652v1.015H2v-1.015C2 39.246 11.246 30 22.652 30zm8.87-13.667c0 4.602-3.698 8.334-8.261 8.334-4.562 0-8.261-3.732-8.261-8.334C15 11.732 18.7 8 23.26 8c4.564 0 8.262 3.732 8.262 8.333z" fill="#317AE2" mask="url(#b-illustration)"></path></g><g transform="translate(62.000000, 70.000000)" fill="#26292C" fill-rule="nonzero"><path d="M1 1.167a.5.5 0 0 1 0-1h23.957a.5.5 0 1 1 0 1H1zm6.609 5a.5.5 0 0 1 0-1h10.739a.5.5 0 1 1 0 1H7.608z"></path></g><g transform="translate(32.000000, 0.000000)" fill="#26292C" fill-rule="nonzero"><path d="M6.5 11.833a.5.5 0 1 1-1 0V5.25A4.5 4.5 0 0 1 10 .75h66a4.5 4.5 0 0 1 4.5 4.5v84.5a4.5 4.5 0 0 1-4.5 4.5H10a4.5 4.5 0 0 1-4.5-4.5v-8.667a.5.5 0 1 1 1 0v8.667a3.5 3.5 0 0 0 3.5 3.5h66a3.5 3.5 0 0 0 3.5-3.5V5.25a3.5 3.5 0 0 0-3.5-3.5H10a3.5 3.5 0 0 0-3.5 3.5v6.583zm0 65.114a.5.5 0 1 1-1 0v-17.74a.5.5 0 0 1 1 0v17.74z"></path><path d="M6.5 54.926a.5.5 0 1 1-1 0V38.012a.5.5 0 1 1 1 0v16.914zm0-21.025a.5.5 0 1 1-1 0V16.116a.5.5 0 1 1 1 0v17.785z"></path><path d="M1.5 14A1.5 1.5 0 0 0 3 15.5h6a1.5 1.5 0 0 0 0-3H3A1.5 1.5 0 0 0 1.5 14zm-1 0A2.5 2.5 0 0 1 3 11.5h6a2.5 2.5 0 1 1 0 5H3A2.5 2.5 0 0 1 .5 14z"></path><path d="M1.5 79A1.5 1.5 0 0 0 3 80.5h6a1.5 1.5 0 0 0 0-3H3A1.5 1.5 0 0 0 1.5 79zm-1 0A2.5 2.5 0 0 1 3 76.5h6a2.5 2.5 0 1 1 0 5H3A2.5 2.5 0 0 1 .5 79z"></path><path d="M1.5 57A1.5 1.5 0 0 0 3 58.5h6a1.5 1.5 0 0 0 0-3H3A1.5 1.5 0 0 0 1.5 57zm-1 0A2.5 2.5 0 0 1 3 54.5h6a2.5 2.5 0 1 1 0 5H3A2.5 2.5 0 0 1 .5 57z"></path><path d="M1.5 36A1.5 1.5 0 0 0 3 37.5h6a1.5 1.5 0 0 0 0-3H3A1.5 1.5 0 0 0 1.5 36zm-1 0A2.5 2.5 0 0 1 3 33.5h6a2.5 2.5 0 1 1 0 5H3A2.5 2.5 0 0 1 .5 36z"></path></g><g transform="translate(9.000000, 45.000000)" fill="#26292C" fill-rule="nonzero"><path d="M4.217 58.003a.5.5 0 1 1 .839-.545c8.446 13.004 25.662 22.688 46.333 25.892a.5.5 0 0 1-.153.988C30.302 81.093 12.832 71.267 4.217 58.003zm76.978 26.421a.5.5 0 1 1-.147-.989c24.407-3.633 43.864-16.233 50.234-32.418a.5.5 0 0 1 .93.366c-6.517 16.558-26.286 29.36-51.017 33.041zm50.832-57.27a.5.5 0 1 1-.925.38c-4.386-10.69-14.446-19.873-28.228-25.847a.5.5 0 1 1 .397-.918c14.006 6.072 24.263 15.434 28.756 26.386zM28.819 1.196a.5.5 0 0 1 .41.912 72.534 72.534 0 0 0-4.833 2.396C13.318 10.525 5.327 18.767 1.697 28.036a.5.5 0 0 1-.931-.365c3.723-9.505 11.88-17.919 23.153-24.047a73.534 73.534 0 0 1 4.9-2.429z"></path></g></g></svg>
