<!--?xml version="1.0" encoding="UTF-8"?--><svg width="24px" height="24px" viewBox="0 0 24 24" version="1.1" xmlns="http://www.w3.org/2000/svg" xmlns:xlink="http://www.w3.org/1999/xlink">
    <!-- Generator: Sketch 48.2 (47327) - http://www.bohemiancoding.com/sketch -->
    <title>gmail</title>
    <desc>Created with Sketch.</desc>
    <defs>
        <path d="M5.3432748e-05,3.14316198 L4.02929442,0.0146375584 C4.99088224,2.76721299 7.61029879,4.74181818 10.6909091,4.74181818 C12.2247923,4.74181818 13.6443365,4.25227462 14.8018254,3.42090376 L18.7358212,6.59129843 C16.6074986,8.51546866 13.7860486,9.68727273 10.6909091,9.68727273 C6.02815348,9.68727273 1.98652855,7.0278961 5.3432748e-05,3.14316198 Z" id="path-1"></path>
        <path d="M1.36065878,0.0154328679 L5.38668495,3.10967132 C5.10138264,3.87596238 4.94545455,4.70522625 4.94545455,5.57090909 C4.94545455,6.41837079 5.09488768,7.2309305 5.36884177,7.98367606 L1.31740558,11.0429238 C0.475246416,9.40214109 0,7.54202496 0,5.57090909 C0,3.56629539 0.491536673,1.67648624 1.36065878,0.0154328679 Z" id="path-3"></path>
        <path d="M4.04850313,9.53876223 L0.0224769599,6.44452378 C2.02674369,2.61399871 6.03901488,0 10.6618182,0 C13.9856718,0 16.9938932,1.35138262 19.1670215,3.53468721 L15.6827677,7.0445292 C14.4036529,5.74861903 12.6265301,4.94545455 10.6618182,4.94545455 C7.63138315,4.94545455 5.04724088,6.85626103 4.04850313,9.53876223 Z" id="path-5"></path>
    </defs>
    <g id="Icons" stroke="none" stroke-width="1" fill="none" fill-rule="evenodd">
        <g id="gmail">
            <g id="Google">
                <g id="Group-5" transform="translate(12.072727, 9.512727)" fill="#4285F4">
                    <path d="M7.97308888,11.3904811 L4.04232189,8.21793308 C5.17052163,7.40636857 6.04932446,6.26987385 6.54172473,4.94545459 L-3.55271368e-15,4.94545455 L-3.55271368e-15,0 L11.6691743,0 C11.8383155,0.802465055 11.9272727,1.63448036 11.9272727,2.48727273 C11.9272727,2.90851864 11.9055674,3.324695 11.8632142,3.73474444 C11.5504666,6.76265994 10.1118408,9.45648948 7.97308888,11.3904811 Z" id="Combined-Shape" transform="translate(5.963636, 5.695241) rotate(2.000000) translate(-5.963636, -5.695241) "></path>
                </g>
                <g id="Group-5" transform="translate(1.309091, 14.312727)">
                    <mask id="mask-2" fill="white">
                        <use xlink:href="#path-1"></use>
                    </mask>
                    <use id="Combined-Shape" fill="#34A853" xlink:href="#path-1"></use>
                </g>
                <g id="Group-5" transform="translate(0.000000, 6.429091)">
                    <mask id="mask-4" fill="white">
                        <use xlink:href="#path-3"></use>
                    </mask>
                    <use id="Combined-Shape" fill="#FBBC05" xlink:href="#path-3"></use>
                </g>
                <g id="Group-5" transform="translate(1.338182, 0.000000)">
                    <mask id="mask-6" fill="white">
                        <use xlink:href="#path-5"></use>
                    </mask>
                    <use id="Combined-Shape" fill="#EA4335" xlink:href="#path-5"></use>
                </g>
            </g>
        </g>
    </g>
</svg>
